<svg fill="none" height="14" viewBox="0 0 14 14" width="14" xmlns="http://www.w3.org/2000/svg"><g fill="#d7e0ff" stroke="#4147d5" stroke-width="1.5"><circle cx="3.56438" cy="3.2644" r="2.42157"/><circle cx="9.85853" cy="4.01131" r="1.67471"/><path d="m4.0907 12.9916c-.47846-.0415-.86935-.4103-.93991-.8853-.08984-.6048-.1801-1.2308-.1801-1.8719 0-.64116.09026-1.26718.1801-1.87194.07056-.47504.46144-.84385.93991-.88527.08155-.00706.16341-.01423.24556-.02142.8091-.07083 1.64696-.14419 2.50519-.14419s1.69608.07336 2.50518.14419c.08216.00719.16401.01436.24556.02142.47851.04142.86931.41023.93991.88527.0383.25745.0766.51876.108.78344.9527-.42583 2.2171-.98265 2.2171-.98265v4.14235s-1.2644-.5568-2.2171-.9827c-.0314.2647-.0698.526-.108.7834-.0706.475-.4614.8438-.93991.8853-.08155.007-.1634.0142-.24556.0214-.8091.0708-1.64695.1442-2.50518.1442s-1.69608-.0734-2.50518-.1442c-.08216-.0072-.16402-.0144-.24557-.0214z" stroke-linejoin="round"/></g></svg>